<svg version="1.1" id="Layer_1" xmlns="http://www.w3.org/2000/svg" xmlns:xlink="http://www.w3.org/1999/xlink" x="0px" y="0px"
	 width="100%" viewBox="0 0 785 183" enable-background="new 0 0 785 183" xml:space="preserve">

<path fill="#C79753" opacity="1.000000" stroke="none" 
	d="
M1.000000,2.468657 
	C11.643097,4.487564 22.309933,6.878624 32.922756,9.489252 
	C44.011295,12.216900 55.121807,14.899909 66.088104,18.068327 
	C79.277122,21.878942 94.672333,37.094021 95.156082,53.588982 
	C95.534500,66.492294 94.218437,78.537407 86.040741,89.112450 
	C85.467117,89.854240 86.038353,92.096489 86.778580,93.146606 
	C97.346489,108.138733 101.312958,124.775856 97.657059,142.621719 
	C96.627678,147.646515 92.363625,152.264236 88.867149,156.473938 
	C81.959709,164.790359 72.196838,167.958771 61.987770,170.035034 
	C60.237057,170.391083 58.576958,171.181244 56.830399,171.571045 
	C44.111221,174.409897 31.382055,177.204102 18.652946,179.998291 
	C13.565522,181.115051 8.470266,182.196121 3.189286,183.646713 
	C2.333332,183.669052 1.216066,183.457047 1.090965,182.983139 
	C0.803746,181.895065 1.000000,180.679382 1.000000,179.515488 
	C1.000000,120.656097 1.000000,61.796707 1.000000,2.468657 
M61.910778,110.394272 
	C58.313736,107.725288 54.402588,107.194748 50.363346,109.086617 
	C49.074120,109.690453 47.189854,110.982178 47.159164,112.006523 
	C46.901825,120.597359 47.012749,129.199234 47.012749,138.402832 
	C51.140701,137.711365 54.679394,137.613754 57.839264,136.469757 
	C62.246307,134.874268 66.301132,132.218033 66.923584,126.997887 
	C67.622086,121.139992 66.960037,115.456657 61.910778,110.394272 
M47.000042,50.691772 
	C47.000042,57.308327 47.000042,63.924885 47.000042,70.972687 
	C49.801517,70.972687 52.170052,71.352608 54.360775,70.890160 
	C58.384392,70.040817 62.962299,69.001602 63.758198,64.176987 
	C65.375435,54.373428 61.941391,47.736351 50.928509,46.007435 
	C47.976868,45.544060 46.446423,46.545048 47.000042,50.691772 
z"/>
<path fill="#C79753" opacity="1.000000" stroke="none" 
	d="
M786.000000,48.545898 
	C782.433228,51.672981 779.192261,55.072514 775.224731,56.851723 
	C768.989258,59.648018 761.577515,56.310173 758.033752,50.127422 
	C754.467896,43.906296 756.381165,35.885372 762.615662,30.918959 
	C767.551147,26.987345 775.850037,26.866951 780.413818,31.106392 
	C782.086487,32.660133 782.836304,35.207317 783.695984,37.561626 
	C776.300720,27.987820 768.229004,27.048517 761.236450,35.282627 
	C757.997375,39.096748 757.130737,43.673698 759.216187,48.011230 
	C761.440369,52.637081 765.752686,55.609768 770.935913,55.851845 
	C775.474609,56.063816 780.083862,54.419895 781.868835,49.842903 
	C783.299866,46.173668 783.327576,41.957146 783.978027,37.983494 
	C784.463440,38.277580 784.948853,38.571663 785.717163,38.932873 
	C786.000000,42.030594 786.000000,45.061188 786.000000,48.545898 
z"/>
<path fill="#C79753" opacity="1.000000" stroke="none" 
	d="
M396.000000,114.000000 
	C396.000000,85.873291 396.000000,58.246582 396.000000,30.000000 
	C401.813538,30.000000 407.250763,29.999987 412.687988,30.000004 
	C420.852478,30.000032 429.023651,29.822037 437.176544,30.129595 
	C439.131073,30.203325 441.911316,31.374342 442.811432,32.916454 
	C453.794281,51.732891 464.489288,70.717270 475.283600,89.644012 
	C476.414642,91.627151 477.703369,93.520370 479.712158,96.717979 
	C479.712158,73.795479 479.712158,52.222565 479.712158,30.328306 
	C494.395935,30.328306 508.440613,30.328306 522.743530,30.328306 
	C522.743530,72.084557 522.743530,113.672844 522.743530,155.697922 
	C521.333008,155.797668 519.903564,155.983704 518.473816,155.986496 
	C506.477051,156.010010 494.478210,155.878769 482.484802,156.079712 
	C479.226807,156.134308 477.570984,155.106949 475.958130,152.222137 
	C464.784363,132.236038 453.364807,112.387375 441.155518,92.618881 
	C441.155518,113.569038 441.155518,134.519196 441.155518,155.730026 
	C425.939362,155.730026 411.345520,155.730026 396.000000,155.730026 
	C396.000000,142.002243 396.000000,128.251129 396.000000,114.000000 
z"/>
<path fill="#C79753" opacity="1.000000" stroke="none" 
	d="
M259.712280,107.358536 
	C256.631042,102.191628 253.753403,97.337067 250.139908,91.241135 
	C250.139908,113.539940 250.139908,134.401733 250.139908,155.630005 
	C235.026627,155.630005 220.318024,155.630005 205.303238,155.630005 
	C205.303238,113.900116 205.303238,72.203423 205.303238,30.005310 
	C219.608856,30.005310 233.720688,29.937729 247.829468,30.114141 
	C249.179337,30.131018 251.067856,31.346636 251.764740,32.550713 
	C259.966614,46.722027 267.965454,61.010616 276.067780,75.239853 
	C280.086121,82.296852 284.207489,89.295174 288.989258,97.538895 
	C288.989258,74.301750 288.989258,52.448380 288.989258,30.299854 
	C303.329620,30.299854 317.254578,30.299854 331.590637,30.299854 
	C331.590637,71.885361 331.590637,113.582779 331.590637,156.000000 
	C326.636627,156.000000 321.545105,156.000046 316.453583,156.000000 
	C307.791962,155.999893 299.128113,156.099380 290.470825,155.905136 
	C288.961884,155.871277 286.771484,155.009186 286.094086,153.837097 
	C277.242157,138.521088 268.606140,123.080299 259.712280,107.358536 
z"/>
<path fill="#C79753" opacity="1.000000" stroke="none" 
	d="
M725.700928,60.356091 
	C727.625549,66.163475 729.391541,71.607414 731.064270,77.079826 
	C731.829163,79.582504 733.462402,80.046829 735.907715,80.062370 
	C746.700256,80.130943 746.584412,80.252304 749.997253,90.284187 
	C757.253662,111.613953 764.642334,132.898727 772.130005,154.647003 
	C755.351379,154.647003 738.991394,154.647003 722.299683,154.647003 
	C721.542542,150.921768 721.030457,147.030930 719.858887,143.349991 
	C719.423218,141.981033 717.466431,140.180374 716.164062,140.147934 
	C705.694031,139.887146 695.214600,140.001968 684.500793,140.001968 
	C683.510132,144.972076 682.561890,149.729416 681.562988,154.740906 
	C665.531555,154.740906 649.453247,154.740906 632.816040,154.740906 
	C647.122375,112.711510 661.322083,70.995377 675.615234,29.004772 
	C687.902405,29.004772 700.214294,28.918447 712.520630,29.141125 
	C713.723267,29.162888 715.507874,30.865192 715.976807,32.164711 
	C719.305359,41.389446 722.361389,50.712524 725.700928,60.356091 
M709.896973,102.751968 
	C707.291382,93.239449 704.685791,83.726921 702.080139,74.214401 
	C701.694946,74.214592 701.309692,74.214783 700.924438,74.214981 
	C698.206848,85.627518 695.489197,97.040062 692.716553,108.683533 
	C699.315369,108.683533 705.041931,108.683533 711.045837,108.683533 
	C710.641907,106.746620 710.313171,105.170250 709.896973,102.751968 
z"/>
<path fill="#C79753" opacity="1.000000" stroke="none" 
	d="
M189.000000,99.954903 
	C189.000000,103.087669 189.000000,105.727005 189.000000,108.936035 
	C177.259628,108.936035 165.869934,108.936035 154.246307,108.936035 
	C154.246307,113.439819 154.246307,117.370094 154.246307,121.882431 
	C167.348190,121.882431 180.404984,121.882431 193.725235,121.882431 
	C193.725235,133.385239 193.725235,144.314728 193.725235,155.623169 
	C165.367584,155.623169 136.988602,155.623169 108.303970,155.623169 
	C108.303970,113.672981 108.303970,71.746155 108.303970,29.409342 
	C135.899551,29.409342 163.612381,29.409342 191.663574,29.409342 
	C191.663574,40.713909 191.663574,52.094143 191.663574,63.880077 
	C179.256668,63.880077 166.990189,63.880077 154.364395,63.880077 
	C154.364395,67.989288 154.364395,71.702614 154.364395,75.825211 
	C165.684586,75.825211 176.952682,75.825211 189.000000,75.825211 
	C189.000000,83.955093 189.000000,91.708282 189.000000,99.954903 
z"/>
<path fill="#C79753" opacity="1.000000" stroke="none" 
	d="
M533.916565,112.912430 
	C527.458801,88.017273 531.588806,65.127075 547.360779,45.677479 
	C557.168884,33.582420 571.039551,26.691498 587.269470,24.796207 
	C599.752563,23.338453 611.324219,26.244837 623.052429,29.178249 
	C624.186707,29.461952 625.845398,30.967726 625.857178,31.923471 
	C626.036499,46.503647 625.981934,61.086708 625.981934,76.034859 
	C616.207825,71.552757 607.175354,66.858513 596.706360,67.010689 
	C587.127380,67.149918 579.978882,72.990112 576.081787,83.940468 
	C573.580078,90.969971 575.120728,101.242043 581.659973,107.373665 
	C592.862366,117.877762 608.010559,117.433632 617.430847,111.736206 
	C620.291260,110.006210 622.647156,107.442070 625.995422,104.617867 
	C625.995422,120.011513 626.286377,134.290726 625.851013,148.547760 
	C625.678955,154.180664 619.493896,154.491257 616.072693,154.695999 
	C603.585266,155.443329 590.689026,156.790649 578.585999,154.514145 
	C565.564392,152.064880 553.083984,145.905869 545.398193,133.805084 
	C541.215088,127.218933 537.763733,120.168007 533.916565,112.912430 
z"/>
<path fill="#C79753" opacity="1.000000" stroke="none" 
	d="
M342.000000,94.000000 
	C342.000000,72.550201 342.000000,51.600399 342.000000,30.326303 
	C357.724731,30.326303 373.093872,30.326303 388.732361,30.326303 
	C388.732361,72.038887 388.732361,113.604401 388.732361,155.585205 
	C373.457794,155.585205 358.086700,155.585205 342.000000,155.585205 
	C342.000000,135.306396 342.000000,114.903198 342.000000,94.000000 
z"/>
<path fill="#C79753" opacity="1.000000" stroke="none" 
	d="
M728.955261,54.151192 
	C725.731689,45.359779 722.556335,36.963017 719.170715,28.010309 
	C727.737793,28.010309 735.813354,27.919298 743.881592,28.121861 
	C744.927246,28.148113 746.690979,29.570490 746.846130,30.548519 
	C749.025574,44.291782 750.991882,58.068970 752.973938,71.843094 
	C753.089600,72.646645 752.897766,73.494438 752.809937,74.985649 
	C747.862000,74.985649 742.908142,75.176537 737.991394,74.834167 
	C736.932373,74.760429 735.592957,72.922409 735.092285,71.623550 
	C732.919373,65.986214 731.009155,60.247612 728.955261,54.151192 
z"/>

<path fill="#C79753" opacity="1.000000" stroke="none" 
	d="
M775.678955,34.887585 
	C780.459656,38.116535 778.825012,40.828526 775.534729,43.649494 
	C776.289307,45.698696 777.116516,47.945107 778.146606,50.742363 
	C772.651978,51.455490 774.550537,41.806248 768.325073,44.468391 
	C768.110962,46.423481 767.868225,48.639854 767.611755,50.981747 
	C764.660767,49.501984 764.274780,46.389523 765.360046,33.846550 
	C768.654785,34.149582 771.973572,34.454823 775.678955,34.887585 
M769.527832,41.963535 
	C771.340271,40.894241 773.152710,39.824951 774.965149,38.755634 
	C772.951111,37.633087 770.937012,36.510536 768.922974,35.387985 
	C768.556824,35.838951 768.190674,36.289917 767.824524,36.740879 
	C768.109314,38.429203 768.394165,40.117523 769.527832,41.963535 
z"/>

</svg>