<svg width="100" height="100" viewBox="0 0 194 194" fill="none" xmlns="http://www.w3.org/2000/svg">
<circle cx="97" cy="97" r="97" fill="url(#paint0_linear_35_12)"/>
<path d="M144.528 83.1875L135.375 74.0407V51.625C135.375 48.1531 132.534 45.3125 129.062 45.3125H122.75C119.278 45.3125 116.438 48.1531 116.438 51.625V55.1158L103.812 42.5034C102.089 40.8748 100.511 39 97.5 39C94.4889 39 92.9108 40.8748 91.1875 42.5034L50.4719 83.1875C48.5024 85.2391 47 86.7351 47 89.5C47 93.0539 49.727 95.8125 53.3125 95.8125H59.625V133.688C59.625 137.159 62.4656 140 65.9375 140H78.5625C82.0488 140 84.875 137.174 84.875 133.688V108.438C84.875 104.966 87.7156 102.125 91.1875 102.125H103.812C107.284 102.125 110.125 104.966 110.125 108.438V133.688C110.125 137.174 109.795 140 113.281 140H129.062C132.534 140 135.375 137.159 135.375 133.688V95.8125H141.688C145.273 95.8125 148 93.0539 148 89.5C148 86.7351 146.498 85.2391 144.528 83.1875Z" stroke="black" stroke-width="5" stroke-linejoin="round"/>
<defs>
<linearGradient id="paint0_linear_35_12" x1="97" y1="0" x2="97" y2="194" gradientUnits="userSpaceOnUse">
<stop stop-color="#DBB164"/>
<stop offset="1" stop-color="#C79753"/>
</linearGradient>
</defs>
</svg>
