<svg width="21" height="21" viewBox="0 0 21 21" fill="none" xmlns="http://www.w3.org/2000/svg">
<path d="M20.0808 19.1599L18.6609 20.5799C18.4735 20.7661 18.22 20.8707 17.9558 20.8707C17.6917 20.8707 17.4382 20.7661 17.2508 20.5799L5.37085 8.71987C5.04566 8.81408 4.70937 8.86453 4.37085 8.86987C3.73415 8.86942 3.10676 8.71698 2.54084 8.42524C1.97492 8.13349 1.48681 7.71087 1.11711 7.1925C0.747408 6.67414 0.506788 6.075 0.415255 5.44492C0.323723 4.81484 0.383922 4.17201 0.590849 3.56987L3.13085 6.10987L3.66085 5.57987L5.08085 4.15987L5.61085 3.62987L3.07085 1.08987C3.67298 0.882946 4.31581 0.822747 4.9459 0.914279C5.57598 1.00581 6.17511 1.24643 6.69348 1.61614C7.21184 1.98584 7.63447 2.47394 7.92621 3.03986C8.21796 3.60579 8.37039 4.23318 8.37085 4.86987C8.3655 5.20839 8.31506 5.54468 8.22085 5.86987L20.0808 17.7499C20.2671 17.9372 20.3716 18.1907 20.3716 18.4549C20.3716 18.7191 20.2671 18.9725 20.0808 19.1599ZM0.660849 17.7499C0.474598 17.9372 0.370056 18.1907 0.370056 18.4549C0.370056 18.7191 0.474598 18.9725 0.660849 19.1599L2.08085 20.5799C2.26821 20.7661 2.52166 20.8707 2.78585 20.8707C3.05003 20.8707 3.30349 20.7661 3.49085 20.5799L8.96085 15.1199L6.13085 12.2899M18.3708 0.869873L14.3708 2.86987V4.86987L12.2008 7.03987L14.2008 9.03987L16.3708 6.86987H18.3708L20.3708 2.86987L18.3708 0.869873Z" fill="#C79753"/>
</svg>
